<?xml version="1.0" standalone="no"?>
<!DOCTYPE svg PUBLIC "-//W3C//DTD SVG 20010904//EN"
 "http://www.w3.org/TR/2001/REC-SVG-20010904/DTD/svg10.dtd">
<svg version="1.0" xmlns="http://www.w3.org/2000/svg"
 width="200.000000pt" height="200.000000pt" viewBox="0 0 200.000000 200.000000"
 preserveAspectRatio="xMidYMid meet">
<metadata>
Created by potrace 1.11, written by Peter Selinger 2001-2013
</metadata>
<g transform="translate(0.000000,200.000000) scale(0.100000,-0.100000)"
fill="#000000" stroke="none">
<path d="M850 1761 c-47 -67 -65 -131 -106 -374 -18 -110 -31 -131 -80 -125
-21 2 -35 -1 -38 -9 -6 -15 -25 -17 -43 -5 -9 6 -6 23 12 69 14 33 30 95 36
137 l12 77 -29 30 c-15 16 -31 29 -36 29 -22 0 -80 -117 -118 -237 -47 -150
-31 -136 -190 -174 -135 -32 -180 -62 -180 -120 0 -30 7 -44 32 -68 29 -27 37
-29 78 -24 52 6 147 27 173 38 17 7 18 4 11 -41 -4 -27 -7 -77 -8 -111 l0 -63
-102 0 c-127 0 -162 -16 -189 -85 -16 -43 -16 -47 2 -82 l18 -38 98 0 99 0 -5
-35 c-4 -19 -11 -65 -17 -101 -6 -37 -10 -88 -8 -114 2 -40 8 -52 34 -72 l31
-23 40 52 c34 45 42 65 52 133 6 44 11 97 11 118 l0 37 73 0 72 0 -4 -77 c-2
-43 2 -108 9 -144 9 -55 15 -68 33 -73 42 -11 52 -6 81 40 25 40 28 51 22 96
-5 34 -1 82 11 143 l18 93 135 7 c74 4 145 11 157 16 14 5 26 23 33 46 10 33
8 47 -13 103 l-24 65 -63 -4 c-35 -1 -92 -14 -128 -27 l-65 -25 7 23 c3 13 14
68 23 123 10 55 17 101 18 102 0 1 48 7 107 13 58 6 128 17 156 25 46 14 50
18 61 58 9 36 8 49 -12 94 l-22 53 -80 -7 c-44 -3 -88 -10 -97 -14 -25 -13
-58 -11 -64 5 -3 7 4 58 15 112 49 245 49 310 0 344 l-27 20 -22 -29z m-175
-731 c4 -11 -1 -65 -11 -120 l-17 -100 -74 0 c-81 0 -79 -2 -62 70 6 25 12 56
14 70 1 14 3 31 3 38 1 7 14 24 28 37 36 33 109 36 119 5z"/>
<path d="M1624 1698 c-11 -13 -95 -95 -187 -182 -167 -160 -207 -211 -207
-269 0 -41 35 -71 74 -63 50 10 116 57 165 116 49 61 77 77 68 38 -25 -106
-73 -677 -64 -777 5 -58 3 -71 -8 -71 -8 0 -58 -14 -111 -31 -121 -39 -174
-81 -174 -139 0 -62 36 -84 135 -85 34 0 67 8 103 26 l53 27 27 -40 c25 -38
28 -40 66 -33 56 8 76 29 76 79 0 53 7 62 55 79 101 36 197 89 216 120 27 45
25 83 -6 103 -21 14 -40 15 -108 9 -45 -4 -97 -13 -116 -21 -26 -11 -36 -12
-42 -3 -14 24 -21 208 -10 296 6 48 18 167 26 263 8 96 22 225 31 286 17 119
12 177 -24 257 l-17 39 -21 -24z"/>
</g>
</svg>
