<svg xmlns="http://www.w3.org/2000/svg"><symbol id="avatar" viewBox="0 0 482.9 482.9"><path d="M239.7 260.2h3.2c29.3-.5 53-10.8 70.5-30.5 38.5-43.4 32.1-117.8 31.4-124.9-2.5-53.3-27.7-78.8-48.5-90.7C280.8 5.2 262.7.4 242.5 0H240.8c-11.1 0-32.9 1.8-53.8 13.7-21 11.9-46.6 37.4-49.1 91.1-.7 7.1-7.1 81.5 31.4 124.9 17.4 19.7 41.1 30 70.4 30.5zm-75.1-152.9c0-.3.1-.6.1-.8 3.3-71.7 54.2-79.4 76-79.4H241.9c27 .6 72.9 11.6 76 79.4 0 .3 0 .6.1.8.1.7 7.1 68.7-24.7 104.5-12.6 14.2-29.4 21.2-51.5 21.4h-1c-22-.2-38.9-7.2-51.4-21.4-31.7-35.6-24.9-103.9-24.8-104.5z"/><path d="M446.8 383.6v-.3c0-.8-.1-1.6-.1-2.5-.6-19.8-1.9-66.1-45.3-80.9-.3-.1-.7-.2-1-.3-45.1-11.5-82.6-37.5-83-37.8-6.1-4.3-14.5-2.8-18.8 3.3-4.3 6.1-2.8 14.5 3.3 18.8 1.7 1.2 41.5 28.9 91.3 41.7 23.3 8.3 25.9 33.2 26.6 56 0 .9 0 1.7.1 2.5.1 9-.5 22.9-2.1 30.9-16.2 9.2-79.7 41-176.3 41-96.2 0-160.1-31.9-176.4-41.1-1.6-8-2.3-21.9-2.1-30.9 0-.8.1-1.6.1-2.5.7-22.8 3.3-47.7 26.6-56 49.8-12.8 89.6-40.6 91.3-41.7 6.1-4.3 7.6-12.7 3.3-18.8-4.3-6.1-12.7-7.6-18.8-3.3-.4.3-37.7 26.3-83 37.8-.4.1-.7.2-1 .3-43.4 14.9-44.7 61.2-45.3 80.9 0 .9 0 1.7-.1 2.5v.3c-.1 5.2-.2 31.9 5.1 45.3 1 2.6 2.8 4.8 5.2 6.3 3 2 74.9 47.8 195.2 47.8s192.2-45.9 195.2-47.8c2.3-1.5 4.2-3.7 5.2-6.3 5-13.3 4.9-40 4.8-45.2z"/></symbol><symbol id="clock" viewBox="0 0 100 100"><path d="M48.58 0C21.793 0 0 21.793 0 48.58s21.793 48.58 48.58 48.58 48.58-21.793 48.58-48.58S75.367 0 48.58 0zm0 86.823c-21.087 0-38.244-17.155-38.244-38.243S27.493 10.337 48.58 10.337 86.824 27.492 86.824 48.58 69.667 86.823 48.58 86.823z"/><path d="M73.898 47.08H52.066V20.83a4 4 0 0 0-8 0v30.25a4 4 0 0 0 4 4h25.832a4 4 0 0 0 0-8z"/></symbol><symbol id="close" viewBox="0 0 21.9 21.9"><path d="M14.1 11.3c-.2-.2-.2-.5 0-.7l7.5-7.5c.2-.2.3-.5.3-.7s-.1-.5-.3-.7L20.2.3c-.2-.2-.5-.3-.7-.3-.3 0-.5.1-.7.3l-7.5 7.5c-.2.2-.5.2-.7 0L3.1.3C2.9.1 2.6 0 2.4 0s-.5.1-.7.3L.3 1.7c-.2.2-.3.5-.3.7s.1.5.3.7l7.5 7.5c.2.2.2.5 0 .7L.3 18.8c-.2.2-.3.5-.3.7s.1.5.3.7l1.4 1.4c.2.2.5.3.7.3s.5-.1.7-.3l7.5-7.5c.2-.2.5-.2.7 0l7.5 7.5c.2.2.5.3.7.3s.5-.1.7-.3l1.4-1.4c.2-.2.3-.5.3-.7s-.1-.5-.3-.7l-7.5-7.5z"/></symbol><symbol id="coffee" viewBox="0 0 512 512"><path d="M456.828 441.379H349.196c27.42-10.952 48.388-26.532 64.374-45.4 65.231-9.903 94.458-63.846 94.458-113.496 0-35.246-19.627-64.674-45.028-69.82l.007-.8c0-4.414-1.766-8.828-5.297-12.359-3.531-3.531-7.945-5.297-12.359-5.297H39.283c-4.414 0-8.828 1.766-12.359 5.297-3.531 3.531-5.297 7.945-5.297 12.359.683 94.94 17.221 190.936 113.811 229.517H26.924c-12.359 0-22.952 9.71-22.952 22.952 0 10.593 7.062 18.538 19.421 21.186l112.11 7.945c2.648 0 5.297 1.766 6.179 4.414 4.414 8.828 13.241 14.124 22.952 14.124h146.538c9.71 0 18.538-5.297 22.069-14.124.883-2.648 3.531-4.414 6.179-4.414l120.055-7.945h.883c12.359-2.648 19.421-10.593 19.421-21.186 0-12.36-9.71-22.953-22.951-22.953zm6.179-210.096c15.007 5.297 26.483 26.483 26.483 51.2 0 34.4-15.867 75.85-59.925 90.887a172.4 172.4 0 0 0 2.167-3.789c24.517-42.527 29.561-93.739 31.275-138.298zM39.283 211.862h406.069c-.883 119.172-26.483 229.517-203.034 229.517S40.166 331.034 39.283 211.862zm419.31 256l-118.29 7.945c-8.828.883-16.772 6.179-21.186 14.124-1.766 2.648-4.414 4.414-7.062 4.414h-147.42c-2.648 0-5.297-1.766-7.062-4.414-4.414-7.945-12.359-13.241-21.186-14.124l-110.345-7.945c-4.414-.883-4.414-2.648-4.414-3.531 0-2.648 2.648-5.297 5.297-5.297H457.71c2.648 0 5.297 2.648 5.297 5.297 0 .883 0 2.648-4.414 3.531zM236.138 73.269c-13.241 13.241-20.303 26.483-20.303 40.607s7.062 28.248 20.303 42.372c1.766 1.766 3.531 2.648 6.179 2.648s4.414-.883 6.179-2.648c3.531-3.531 3.531-8.828 0-12.359-9.71-10.593-15.007-20.303-15.007-30.014s5.297-19.421 15.007-28.248C261.738 73.269 268.8 59.145 268.8 45.021s-6.179-29.131-20.303-42.372c-3.531-3.531-8.828-3.531-12.359 0-3.531 3.531-3.531 8.828 0 12.359 9.71 10.593 15.007 20.303 15.007 30.014s-5.297 19.419-15.007 28.247zM312.938 113.876c0 14.124 7.062 28.248 20.303 42.372 1.766 1.766 3.531 2.648 6.179 2.648 1.766 0 4.414-.883 5.297-2.648 3.531-3.531 3.531-8.828 0-12.359-9.71-10.593-15.007-20.303-15.007-30.014s5.297-19.421 15.007-28.248c14.124-12.359 21.186-26.483 21.186-40.607 0-15.007-6.179-29.131-20.303-42.372-3.531-3.531-8.828-3.531-12.359 0-3.531 3.531-3.531 8.828 0 12.359 9.71 10.593 15.007 20.303 15.007 30.014s-5.297 18.538-15.007 28.248C320 86.51 312.938 99.752 312.938 113.876zM127.559 113.876c0 14.124 7.062 28.248 20.303 42.372 1.766 1.766 3.531 2.648 6.179 2.648 1.766 0 4.414-.883 5.297-2.648 3.531-3.531 3.531-8.828 0-12.359-9.71-10.593-15.007-20.303-15.007-30.014s5.297-19.421 15.007-28.248c14.124-12.359 21.186-26.483 21.186-40.607 0-15.007-6.179-29.131-20.303-42.372-3.531-3.531-8.828-3.531-12.359 0-3.531 3.531-3.531 8.828 0 12.359 9.71 10.593 15.007 20.303 15.007 30.014s-5.297 18.538-15.007 28.248c-13.241 13.241-20.303 26.483-20.303 40.607z"/><path d="M191.117 397.241c-62.676-10.593-94.455-45.903-107.697-116.524-.883-4.414-6.179-7.945-10.593-7.062s-7.945 6.179-7.062 10.593c14.124 78.565 52.083 118.29 121.821 130.648h1.766c4.414 0 7.945-2.648 8.828-7.062.882-5.296-2.649-9.71-7.063-10.593z"/></symbol><symbol id="email" viewBox="0 0 382.117 382.117"><path d="M336.764 45.945H45.354C20.346 45.945 0 65.484 0 89.5v203.117c0 24.016 20.346 43.555 45.354 43.555h291.41c25.008 0 45.353-19.539 45.353-43.555V89.5c0-24.016-20.345-43.555-45.353-43.555zm0 251.775H45.354c-3.676 0-6.9-2.384-6.9-5.103V116.359l131.797 111.27a15.014 15.014 0 0 0 9.676 3.538l22.259.001c3.536 0 6.974-1.257 9.677-3.539l131.803-111.274v176.264c-.002 2.717-3.227 5.101-6.902 5.101zM191.059 192.987L62.87 84.397h256.378l-128.189 108.59z"/></symbol><symbol id="facebook" viewBox="0 0 100 100"><path d="M72.089.02L59.624 0C45.62 0 36.57 9.285 36.57 23.656v10.907H24.037a1.96 1.96 0 0 0-1.96 1.961v15.803a1.96 1.96 0 0 0 1.96 1.96H36.57v39.876a1.96 1.96 0 0 0 1.96 1.96h16.352a1.96 1.96 0 0 0 1.96-1.96V54.287h14.654a1.96 1.96 0 0 0 1.96-1.96l.006-15.803a1.963 1.963 0 0 0-1.961-1.961H56.842v-9.246c0-4.444 1.059-6.7 6.848-6.7l8.397-.003a1.96 1.96 0 0 0 1.959-1.96V1.98A1.96 1.96 0 0 0 72.089.02z"/></symbol><symbol id="instagram" viewBox="0 0 512 512"><path d="M352 0H160C71.648 0 0 71.648 0 160v192c0 88.352 71.648 160 160 160h192c88.352 0 160-71.648 160-160V160C512 71.648 440.352 0 352 0zm112 352c0 61.76-50.24 112-112 112H160c-61.76 0-112-50.24-112-112V160C48 98.24 98.24 48 160 48h192c61.76 0 112 50.24 112 112v192z"/><path d="M256 128c-70.688 0-128 57.312-128 128s57.312 128 128 128 128-57.312 128-128-57.312-128-128-128zm0 208c-44.096 0-80-35.904-80-80 0-44.128 35.904-80 80-80s80 35.872 80 80c0 44.096-35.904 80-80 80z"/><circle cx="393.6" cy="118.4" r="17.056"/></symbol><symbol id="left" viewBox="0 0 31.494 31.494"><path d="M10.273 5.009a1.112 1.112 0 0 1 1.587 0 1.12 1.12 0 0 1 0 1.571l-8.047 8.047h26.554c.619 0 1.127.492 1.127 1.111s-.508 1.127-1.127 1.127H3.813l8.047 8.032c.429.444.429 1.159 0 1.587a1.112 1.112 0 0 1-1.587 0L.321 16.532a1.12 1.12 0 0 1 0-1.571l9.952-9.952z" fill="#dedede"/></symbol><symbol id="phone" viewBox="0 0 578.106 578.106"><path d="M577.83 456.128c1.225 9.385-1.635 17.545-8.568 24.48l-81.396 80.781c-3.672 4.08-8.465 7.551-14.381 10.404-5.916 2.857-11.729 4.693-17.439 5.508-.408 0-1.635.105-3.676.309-2.037.203-4.689.307-7.953.307-7.754 0-20.301-1.326-37.641-3.979s-38.555-9.182-63.645-19.584c-25.096-10.404-53.553-26.012-85.376-46.818-31.823-20.805-65.688-49.367-101.592-85.68-28.56-28.152-52.224-55.08-70.992-80.783-18.768-25.705-33.864-49.471-45.288-71.299-11.425-21.828-19.993-41.616-25.705-59.364S4.59 177.362 2.55 164.51-.306 141.56.102 134.216c.408-7.344.612-11.424.612-12.24.816-5.712 2.652-11.526 5.508-17.442s6.324-10.71 10.404-14.382L98.022 8.756c5.712-5.712 12.24-8.568 19.584-8.568 5.304 0 9.996 1.53 14.076 4.59s7.548 6.834 10.404 11.322l65.484 124.236c3.672 6.528 4.692 13.668 3.06 21.42-1.632 7.752-5.1 14.28-10.404 19.584l-29.988 29.988c-.816.816-1.53 2.142-2.142 3.978s-.918 3.366-.918 4.59c1.632 8.568 5.304 18.36 11.016 29.376 4.896 9.792 12.444 21.726 22.644 35.802s24.684 30.293 43.452 48.653c18.36 18.77 34.68 33.354 48.96 43.76 14.277 10.4 26.215 18.053 35.803 22.949 9.588 4.896 16.932 7.854 22.031 8.871l7.648 1.531c.816 0 2.145-.307 3.979-.918 1.836-.613 3.162-1.326 3.979-2.143l34.883-35.496c7.348-6.527 15.912-9.791 25.705-9.791 6.938 0 12.443 1.223 16.523 3.672h.611l118.115 69.768c8.571 5.308 13.67 12.038 15.303 20.198z"/></symbol><symbol id="printer" viewBox="0 0 482.5 482.5"><path d="M399.25 98.9h-12.4V71.3c0-39.3-32-71.3-71.3-71.3h-149.7c-39.3 0-71.3 32-71.3 71.3v27.6h-11.3c-39.3 0-71.3 32-71.3 71.3v115c0 39.3 32 71.3 71.3 71.3h11.2v90.4c0 19.6 16 35.6 35.6 35.6h221.1c19.6 0 35.6-16 35.6-35.6v-90.4h12.5c39.3 0 71.3-32 71.3-71.3v-115c0-39.3-32-71.3-71.3-71.3zm-277.8-27.6c0-24.4 19.9-44.3 44.3-44.3h149.6c24.4 0 44.3 19.9 44.3 44.3v27.6h-238.2V71.3zm238.3 375.8c0 4.7-3.9 8.6-8.6 8.6h-221.1c-4.7 0-8.6-3.9-8.6-8.6V298h238.3v149.1zm83.8-161.8c0 24.4-19.9 44.3-44.3 44.3h-12.4V298h17.8c7.5 0 13.5-6 13.5-13.5s-6-13.5-13.5-13.5h-330c-7.5 0-13.5 6-13.5 13.5s6 13.5 13.5 13.5h19.9v31.6h-11.3c-24.4 0-44.3-19.9-44.3-44.3v-115c0-24.4 19.9-44.3 44.3-44.3h316c24.4 0 44.3 19.9 44.3 44.3v115z"/><path d="M154.15 364.4h171.9c7.5 0 13.5-6 13.5-13.5s-6-13.5-13.5-13.5h-171.9c-7.5 0-13.5 6-13.5 13.5s6.1 13.5 13.5 13.5zM327.15 392.6h-172c-7.5 0-13.5 6-13.5 13.5s6 13.5 13.5 13.5h171.9c7.5 0 13.5-6 13.5-13.5s-6-13.5-13.4-13.5zM398.95 151.9h-27.4c-7.5 0-13.5 6-13.5 13.5s6 13.5 13.5 13.5h27.4c7.5 0 13.5-6 13.5-13.5s-6-13.5-13.5-13.5z"/></symbol><symbol id="right" viewBox="0 0 31.49 31.49"><path d="M21.205 5.007a1.112 1.112 0 0 0-1.587 0 1.12 1.12 0 0 0 0 1.571l8.047 8.047H1.111A1.106 1.106 0 0 0 0 15.737c0 .619.492 1.127 1.111 1.127h26.554l-8.047 8.032c-.429.444-.429 1.159 0 1.587a1.112 1.112 0 0 0 1.587 0l9.952-9.952a1.093 1.093 0 0 0 0-1.571l-9.952-9.953z" fill="#dedede"/></symbol><symbol id="teamwork" viewBox="0 0 480 480"><path d="M106.904 376.368A55.54 55.54 0 0 0 128 336c0-52.896-30.456-64-56-64s-56 11.104-56 64a55.537 55.537 0 0 0 21.096 40.392C15.89 379.005-.031 397.033 0 418.4V480h16v-61.6c0-14.58 11.82-26.4 26.4-26.4h17.76l-11.592 29.024a8.001 8.001 0 0 0 1.776 8.632l16 16a8 8 0 0 0 11.312 0l16-16a8.001 8.001 0 0 0 1.776-8.632L83.816 392H101.6c14.58 0 26.4 11.82 26.4 26.4V480h16v-61.6c.043-21.376-15.881-39.418-37.096-42.032zm-74.488-48.832C34.584 300.728 47.2 288 72 288c22.704 0 35.2 10.736 38.776 33.136l-26.656-16a8 8 0 0 0-11.704 4.328c-4.048 12.144-25.896 16.736-40 18.072zM72 428.664l-6.616-6.616L72 405.536l6.616 16.536L72 428.664zM72 376a50.402 50.402 0 0 1-38.888-32.416c13.696-1.128 38.4-5.28 49.92-20.432l28.6 17.16C108.416 359.896 84.28 376 72 376z"/><path d="M32 448h16v32H32zM96 448h16v32H96zM274.904 376.368A55.54 55.54 0 0 0 296 336c0-52.896-30.456-64-56-64s-56 11.104-56 64a55.537 55.537 0 0 0 21.096 40.392C183.89 379.005 167.969 397.033 168 418.4V480h16v-61.6c0-14.58 11.82-26.4 26.4-26.4h17.76l-11.608 29.024a8.001 8.001 0 0 0 1.776 8.632l16 16a8 8 0 0 0 11.312 0l16-16a8.001 8.001 0 0 0 1.776-8.632L251.816 392H269.6c14.58 0 26.4 11.82 26.4 26.4V480h16v-61.6c.043-21.376-15.881-39.418-37.096-42.032zm-74.488-48.832C202.584 300.728 215.2 288 240 288c22.704 0 35.2 10.736 38.776 33.136l-26.656-16a8 8 0 0 0-11.704 4.328c-4.048 12.144-25.896 16.736-40 18.072zM240 428.664l-6.616-6.616L240 405.536l6.616 16.536-6.616 6.592zM240 376a50.402 50.402 0 0 1-38.888-32.416c13.696-1.128 38.4-5.28 49.92-20.432l28.6 17.16C276.416 359.896 252.28 376 240 376z"/><path d="M200 448h16v32h-16zM264 448h16v32h-16zM461.112 383.128a42.288 42.288 0 0 0-18.208-6.736A55.537 55.537 0 0 0 464 336c0-52.896-30.456-64-56-64s-56 11.104-56 64a55.537 55.537 0 0 0 21.096 40.392C351.89 379.005 335.969 397.033 336 418.4V480h16v-61.6c0-14.58 11.82-26.4 26.4-26.4h17.76l-11.608 29.024a8.001 8.001 0 0 0 1.776 8.632l16 16a8 8 0 0 0 11.312 0l16-16a8.001 8.001 0 0 0 1.776-8.632L419.816 392H437.6c14.58 0 26.4 11.82 26.4 26.4V480h16v-61.6a42.345 42.345 0 0 0-18.888-35.272zm-92.696-55.592C370.584 300.728 383.2 288 408 288c22.704 0 35.2 10.736 38.776 33.136l-26.656-16a8 8 0 0 0-11.704 4.328c-4.048 12.144-25.896 16.736-40 18.072zM408 428.688l-6.616-6.616L408 405.536l6.616 16.536-6.616 6.616zM408 376a50.402 50.402 0 0 1-38.888-32.416c13.696-1.128 38.4-5.28 49.92-20.432l28.6 17.16C444.416 359.896 420.28 376 408 376z"/><path d="M368 448h16v32h-16zM432 448h16v32h-16zM456 80H328c-13.255 0-24 10.745-24 24v8h-64V48c0-13.255-10.745-24-24-24H24C10.745 24 0 34.745 0 48v96c0 13.255 10.745 24 24 24h17.6l24.272 29.12a8 8 0 0 0 12.288 0L102.4 168H136v32c0 13.255 10.745 24 24 24h49.6l24.272 29.12a8 8 0 0 0 12.288 0L270.4 224H320c13.255 0 24-10.745 24-24v-8h41.6l24.272 29.12a8 8 0 0 0 12.288 0L446.4 192h9.6c13.255 0 24-10.745 24-24v-64c0-13.255-10.745-24-24-24zM98.664 152a8 8 0 0 0-6.144 2.88L72 179.504 51.48 154.88a8 8 0 0 0-6.144-2.88H24a8 8 0 0 1-8-8V48a8 8 0 0 1 8-8h192a8 8 0 0 1 8 8v96a8 8 0 0 1-8 8H98.664zM328 200a8 8 0 0 1-8 8h-53.336a8 8 0 0 0-6.144 2.88L240 235.504l-20.52-24.624a8 8 0 0 0-6.144-2.88H160a8 8 0 0 1-8-8v-32h64c13.255 0 24-10.745 24-24v-16h80a8 8 0 0 1 8 8v64zm136-32a8 8 0 0 1-8 8h-13.336a8 8 0 0 0-6.144 2.88L416 203.504l-20.52-24.624a8 8 0 0 0-6.144-2.88H344v-40c0-13.255-10.745-24-24-24v-8a8 8 0 0 1 8-8h128a8 8 0 0 1 8 8v64z"/><path d="M32 56h16v16H32zM64 56h16v16H64zM96 56h16v16H96zM256 144h16v16h-16zM288 144h16v16h-16zM368 112h16v16h-16zM400 112h16v16h-16zM432 112h16v16h-16zM280 0v16c26.497.031 47.969 21.503 48 48h16c-.04-35.33-28.67-63.96-64-64zM112 208H96c.04 35.33 28.67 63.96 64 64v-16c-26.497-.031-47.969-21.503-48-48z"/></symbol><symbol id="vk" viewBox="0 0 500 500"><path d="M545.451 400.298c-.664-1.431-1.283-2.618-1.858-3.569-9.514-17.135-27.695-38.167-54.532-63.102l-.567-.571-.284-.28-.287-.287h-.288c-12.18-11.611-19.893-19.418-23.123-23.415-5.91-7.614-7.234-15.321-4.004-23.13 2.282-5.9 10.854-18.36 25.696-37.397 7.807-10.089 13.99-18.175 18.556-24.267 32.931-43.78 47.208-71.756 42.828-83.939l-1.701-2.847c-1.143-1.714-4.093-3.282-8.846-4.712-4.764-1.427-10.853-1.663-18.278-.712l-82.224.568c-1.332-.472-3.234-.428-5.712.144l-3.713.859-1.431.715-1.136.859c-.952.568-1.999 1.567-3.142 2.995-1.137 1.423-2.088 3.093-2.848 4.996-8.952 23.031-19.13 44.444-30.553 64.238-7.043 11.803-13.511 22.032-19.418 30.693-5.899 8.658-10.848 15.037-14.842 19.126-4 4.093-7.61 7.372-10.852 9.849-3.237 2.478-5.708 3.525-7.419 3.142-1.715-.383-3.33-.763-4.859-1.143-2.663-1.714-4.805-4.045-6.42-6.995-1.622-2.95-2.714-6.663-3.285-11.136-.568-4.476-.904-8.326-1-11.563-.089-3.233-.048-7.806.145-13.706.198-5.903.287-9.897.287-11.991 0-7.234.141-15.085.424-23.555.288-8.47.521-15.181.716-20.125.194-4.949.284-10.185.284-15.705s-.336-9.849-1-12.991a44.442 44.442 0 0 0-2.99-9.137c-1.335-2.95-3.289-5.232-5.853-6.852-2.569-1.618-5.763-2.902-9.564-3.856-10.089-2.283-22.936-3.518-38.547-3.71-35.401-.38-58.148 1.906-68.236 6.855-3.997 2.091-7.614 4.948-10.848 8.562-3.427 4.189-3.905 6.475-1.431 6.851 11.422 1.711 19.508 5.804 24.267 12.275l1.715 3.429c1.334 2.474 2.666 6.854 3.999 13.134 1.331 6.28 2.19 13.227 2.568 20.837.95 13.897.95 25.793 0 35.689-.953 9.9-1.853 17.607-2.712 23.127-.859 5.52-2.143 9.993-3.855 13.418-1.715 3.426-2.856 5.52-3.428 6.28-.571.76-1.047 1.239-1.425 1.427a21.387 21.387 0 0 1-7.71 1.431c-2.667 0-5.901-1.334-9.707-4-3.805-2.666-7.754-6.328-11.847-10.992-4.093-4.665-8.709-11.184-13.85-19.558-5.137-8.374-10.467-18.271-15.987-29.691l-4.567-8.282c-2.855-5.328-6.755-13.086-11.704-23.267-4.952-10.185-9.329-20.037-13.134-29.554-1.521-3.997-3.806-7.04-6.851-9.134l-1.429-.859c-.95-.76-2.475-1.567-4.567-2.427a30.301 30.301 0 0 0-6.567-1.854l-78.229.568c-7.994 0-13.418 1.811-16.274 5.428l-1.143 1.711c-.571.953-.859 2.475-.859 4.57 0 2.094.571 4.664 1.714 7.707 11.42 26.84 23.839 52.725 37.257 77.659 13.418 24.934 25.078 45.019 34.973 60.237 9.897 15.229 19.985 29.602 30.264 43.112 10.279 13.515 17.083 22.176 20.412 25.981 3.333 3.812 5.951 6.662 7.854 8.565l7.139 6.851c4.568 4.569 11.276 10.041 20.127 16.416 8.853 6.379 18.654 12.659 29.408 18.85 10.756 6.181 23.269 11.225 37.546 15.126 14.275 3.905 28.169 5.472 41.684 4.716h32.834c6.659-.575 11.704-2.669 15.133-6.283l1.136-1.431c.764-1.136 1.479-2.901 2.139-5.276.668-2.379 1-5 1-7.851-.195-8.183.428-15.558 1.852-22.124 1.423-6.564 3.045-11.513 4.859-14.846 1.813-3.33 3.859-6.14 6.136-8.418 2.282-2.283 3.908-3.666 4.862-4.142.948-.479 1.705-.804 2.276-.999 4.568-1.522 9.944-.048 16.136 4.429 6.187 4.473 11.99 9.996 17.418 16.56 5.425 6.57 11.943 13.941 19.555 22.124 7.617 8.186 14.277 14.271 19.985 18.274l5.708 3.426c3.812 2.286 8.761 4.38 14.853 6.283 6.081 1.902 11.409 2.378 15.984 1.427l73.087-1.14c7.229 0 12.854-1.197 16.844-3.572 3.998-2.379 6.373-5 7.139-7.851.764-2.854.805-6.092.145-9.712-.677-3.611-1.344-6.136-2.008-7.563z"/></symbol><symbol id="wifi" viewBox="0 0 600 600"><path d="M305.994 417.769c-30.85 0-55.887 25.037-55.887 55.887s25.038 55.887 55.887 55.887 55.887-25.037 55.887-55.887-25.038-55.887-55.887-55.887zm299.442-195.4C530.697 133.434 421.549 82.446 305.994 82.446S81.309 133.434 6.551 222.369c-9.93 11.811-8.402 29.434 3.428 39.363 5.234 4.396 11.587 6.558 17.939 6.558 7.973 0 15.891-3.391 21.423-9.967 64.084-76.248 157.639-119.989 256.652-119.989 99.013 0 192.568 43.741 256.651 119.971 5.533 6.576 13.45 9.967 21.424 9.967 6.353 0 12.724-2.143 17.958-6.558 11.811-9.912 13.34-27.553 3.41-39.345zM305.994 194.22c-82.545 0-160.489 36.419-213.879 99.926-9.929 11.811-8.402 29.434 3.428 39.363a27.833 27.833 0 0 0 17.958 6.558c7.973 0 15.891-3.391 21.405-9.967 42.716-50.838 105.086-79.993 171.089-79.993s128.372 29.155 171.107 79.993c5.533 6.595 13.45 9.967 21.404 9.967 6.353 0 12.724-2.143 17.959-6.558 11.829-9.929 13.356-27.57 3.428-39.363-53.41-63.506-131.354-99.926-213.899-99.926zm0 111.774c-49.553 0-96.331 21.852-128.335 59.948-9.93 11.811-8.402 29.434 3.428 39.363a27.832 27.832 0 0 0 17.958 6.557c7.973 0 15.891-3.39 21.405-9.966 21.368-25.429 52.552-40.016 85.544-40.016s64.177 14.587 85.544 40.016c5.533 6.595 13.45 9.966 21.405 9.966 6.353 0 12.724-2.142 17.958-6.557 11.83-9.93 13.357-27.553 3.428-39.363-32.005-38.096-78.783-59.948-128.335-59.948z"/></symbol><symbol id="work" viewBox="0 0 480 480"><path d="M447.2 416.728A39.575 39.575 0 0 0 456 392v-16c0-22.091-17.909-40-40-40s-40 17.909-40 40v16a39.575 39.575 0 0 0 8.8 24.728 39.907 39.907 0 0 0-24.8 15.52 39.907 39.907 0 0 0-24.8-15.52A39.575 39.575 0 0 0 344 392v-16c0-22.091-17.909-40-40-40s-40 17.909-40 40v16a39.575 39.575 0 0 0 8.8 24.728 39.907 39.907 0 0 0-24.8 15.52 39.907 39.907 0 0 0-24.8-15.52A39.575 39.575 0 0 0 232 392v-16c0-22.091-17.909-40-40-40s-40 17.909-40 40v16a39.575 39.575 0 0 0 8.8 24.728c-18.971 3.471-32.764 19.986-32.8 39.272v24h16v-24c0-13.255 10.745-24 24-24h48c13.255 0 24 10.745 24 24v24h16v-24c0-13.255 10.745-24 24-24h48c13.255 0 24 10.745 24 24v24h16v-24c0-13.255 10.745-24 24-24h48c13.255 0 24 10.745 24 24v24h16v-24c-.036-19.286-13.829-35.801-32.8-39.272zM216 392c0 13.255-10.745 24-24 24s-24-10.745-24-24v-16c0-13.255 10.745-24 24-24s24 10.745 24 24v16zm112 0c0 13.255-10.745 24-24 24s-24-10.745-24-24v-16c0-13.255 10.745-24 24-24s24 10.745 24 24v16zm112 0c0 13.255-10.745 24-24 24s-24-10.745-24-24v-16c0-13.255 10.745-24 24-24s24 10.745 24 24v16zM194.926 160.558A7.986 7.986 0 0 0 192 160h-32a8.001 8.001 0 0 0-7.52 5.264l-8.48 23.32-.28-.76A42.4 42.4 0 0 0 104 160h-.208A39.583 39.583 0 0 0 112 136v-16c0-22.091-17.909-40-40-40s-40 17.909-40 40v16a39.583 39.583 0 0 0 8.208 24H40c-22.08.026-39.974 17.92-40 40v96a8 8 0 0 0 8 8h24v77.6l-14.656 21.96A8 8 0 0 0 24 416h96a8 8 0 0 0 6.656-12.44L112 381.6V233.888l2.016 4c8.084 16.157 27.734 22.702 43.891 14.618a32.716 32.716 0 0 0 15.733-17.098l12.992-32.472 12.8-32a8 8 0 0 0-4.506-10.378zM48 120c0-13.255 10.745-24 24-24s24 10.745 24 24v16c0 13.255-10.745 24-24 24s-24-10.745-24-24v-16zM32 288H16v-16h16v16zm48 112v-96H64v96H38.952l7.704-11.56A8.052 8.052 0 0 0 48 384v-96h48v96a8.052 8.052 0 0 0 1.344 4.44l7.704 11.56H80zm78.784-170.496c-3.434 8.567-13.163 12.729-21.73 9.295a16.708 16.708 0 0 1-8.726-8.031L111.2 196.424A8 8 0 0 0 96 200v72H48v-72a8 8 0 0 0-16 0v56H16v-56c0-13.255 10.745-24 24-24h24v80h16v-80h24a26.336 26.336 0 0 1 24.68 17.288l7.8 21.448a8 8 0 0 0 15.04 0l2.448-6.736h13.416l-8.6 21.504zm15-37.504h-14l5.816-16h14.584l-6.4 16z"/><path d="M472 48a8 8 0 0 0 8-8V8a8 8 0 0 0-8-8H136a8 8 0 0 0-8 8v32a8 8 0 0 0 8 8h8v96h16V48h288v176H192v16h104v35.36l-52 29.696 7.936 13.888L296 293.784V320h16v-26.216l44 25.16 7.936-13.888L312 275.36V240h168v-16h-16V48h8zM144 32V16h320v16H144z"/><path d="M393.944 88.24l-32-8-3.888 15.52 14.984 3.744-60.72 42.504L277 113.752a8 8 0 0 0-9.648-.256l-56 40 9.296 13.008 51.08-36.48L307 158.248a7.999 7.999 0 0 0 9.6.304l67.4-47.184V128h16V96a8.001 8.001 0 0 0-6.056-7.76z"/></symbol></svg>